<svg xmlns="http://www.w3.org/2000/svg" width="19.282" height="21.221" fill="none"><path fill="#141414" fill-rule="evenodd" d="M9.64 0c3.36 0 5.09 2.09 5.11 6.02h2.39c.3 0 .55.22.59.51l1.51 10.58a3.599 3.599 0 0 1-3.05 4.07c-.17.02-.34.04-.51.04H3.59C1.61 21.22 0 19.6 0 17.62c0-.17.01-.34.03-.51L1.54 6.53c.04-.29.3-.51.6-.51h2.42C4.55 2.09 6.27 0 9.64 0Zm6.98 7.22H2.65L1.21 17.36l-.01.09v.17c0 1.32 1.07 2.4 2.39 2.4h12.09c.11 0 .22-.01.34-.03 1.31-.19 2.22-1.4 2.03-2.71L16.62 7.22ZM9.64 1.19c-2.64 0-3.9 1.52-3.88 4.83h7.79c0-3.31-1.28-4.82-3.91-4.82v-.01Z"/></svg>