<svg xmlns="http://www.w3.org/2000/svg" width="166.999" height="48" fill="none"><path fill="#141414" fill-rule="evenodd" d="M10.94 0c7.36 0 11.01 3.58 11.01 11.56V36.6c0 7.81-3.58 11.4-11.01 11.4S0 44.41 0 36.6V11.56C0 3.58 3.57 0 10.94 0Zm145.24 0c6.86 0 10.08 3.35 10.08 10.46v3.02l-7.86.99v-4.08c0-2.99-.8-4.11-2.4-4.11-1.2 0-1.82.86-1.82 2.4 0 2.22.8 5.28 4 9.69l3.11 4.43c3.12 4.41 5.7 8.53 5.7 14.74 0 6.81-3.57 10.4-10.48 10.4-6.9 0-10.55-3.5-10.55-11.01v-3.89l8.2-1.05v4.99c0 3.32.73 4.58 2.56 4.58 1.23 0 1.92-1 1.92-2.76 0-3.39-1.16-6.71-4.18-11.13l-3.02-4.44c-2.98-4.43-5.41-8.18-5.41-12.96C146.06 3.19 149.54 0 156.18 0ZM31.09.72l1.53 20.57c.36 4.8.5 8.07.56 13.75h.73c.11-5.65.27-9.04.63-13.75L36.14.72h8.32l1.53 20.57c.36 4.71.49 8.1.6 13.75h.72c.14-5.65.27-8.93.63-13.75L49.47.72h8.23l-5.55 46.51h-9.58l-1.1-14.43c-.46-5.85-.72-10.41-.92-16.48h-.7c-.23 6.11-.47 10.6-.93 16.48l-1.1 14.4h-9.51L22.5.72h8.59Zm36.38 0v39.5h7.19v7.01H58.84V.72h8.63Zm23.06 0v39.5h7.19v7.01H81.91V.72h8.62Zm25.56 0 6.12 46.51h-8.94l-.46-5.95h-5.18l-.46 5.95h-8.29L104.75.72h11.34Zm19.55 0c6.04 0 8.6 2.8 8.6 9.07v5.49c0 4.44-1.8 6.34-4.62 7.34v.73c3.2 1.13 5.21 3.42 5.21 8.61v5.94c0 6.4-2.75 9.33-8.79 9.33h-12.7V.72h12.3ZM10.97 6.71c-1.57 0-2.32 1.19-2.32 3.68v27.44c0 2.32.76 3.45 2.32 3.45 1.56 0 2.32-1.13 2.32-3.45V10.39c0-2.49-.75-3.68-2.32-3.68ZM133.89 26.2h-1.93v14.4l1.93-.04c1.52 0 2.12-.8 2.12-3v-8.47c0-2.12-.6-2.89-2.12-2.89ZM110.5 12.05h-.69c-.13 5.95-.37 9.47-.73 15.35l-.79 8h3.81l-.8-8c-.36-5.88-.6-9.4-.8-15.35Zm23.29-4.71h-1.83v12.65h1.83c1.52 0 2.12-.69 2.12-2.76V10.2c0-2.1-.6-2.86-2.12-2.86Z"/></svg>